<?xml version="1.0" standalone="no"?>
<!DOCTYPE svg PUBLIC "-//W3C//DTD SVG 1.1//EN" "http://www.w3.org/Graphics/SVG/1.1/DTD/svg11.dtd" >
<svg xmlns="http://www.w3.org/2000/svg">
<metadata>
This is a custom SVG webfont generated by Font Squirrel.
</metadata>
<defs>
<font id="webfontueG9g3la" horiz-adv-x="1445" >
<font-face units-per-em="2048" ascent="1536" descent="-512" />
<missing-glyph horiz-adv-x="446" />
<glyph unicode=" "  horiz-adv-x="446" />
<glyph unicode="&#x09;" horiz-adv-x="446" />
<glyph unicode="&#xa0;" horiz-adv-x="446" />
<glyph unicode="!" horiz-adv-x="632" d="M535 1495l-52 -1053h-327l-58 1053h437zM313 381q90 0 151.5 -59.5t61.5 -145.5t-61.5 -145.5t-151.5 -59.5t-151.5 59.5t-61.5 145.5t61.5 145.5t151.5 59.5z" />
<glyph unicode="&#x22;" horiz-adv-x="944" d="M428 1563l-41 -594h-281l-40 594h362zM879 1563l-41 -594h-281l-41 594h363z" />
<glyph unicode="#" horiz-adv-x="1460" d="M1352 317h-246l-33 -317h-328l33 317h-180l-33 -317h-325l32 317h-225v279h254l23 201h-215v278h243l31 307h326l-31 -307h180l31 307h328l-31 -307h227v-278h-256l-22 -201h217v-279zM807 596l22 201h-180l-22 -201h180z" />
<glyph unicode="$" horiz-adv-x="1048" d="M123 2v371h258q8 -47 10 -88h23q170 0 170 84q0 41 -54.5 69.5t-130 52t-152.5 60.5t-131.5 120t-54.5 206q0 137 91.5 244.5t232.5 146.5v190h260v-170q113 -6 256 -35v-356h-256q-10 35 -14 86q-10 2 -33 2q-145 0 -145 -76q0 -31 38.5 -54.5t98 -39.5t127 -47t127 -71 t98.5 -116.5t39 -179.5q0 -139 -95 -250.5t-249 -158.5v-225h-260v204q-111 2 -254 31z" />
<glyph unicode="%" horiz-adv-x="1730" d="M782 1090q0 -174 -109.5 -282t-264.5 -108q-166 0 -259.5 98.5t-93.5 266.5q0 172 107.5 276.5t261.5 104.5q160 0 259 -89t99 -267zM481 1075q0 70 -14 94.5t-45 24.5q-63 0 -63.5 -121t59.5 -121q27 0 45 31t18 92zM1501 1249l-1022 -1312l-270 196l1022 1313z M1659 326q0 -174 -109.5 -281.5t-265.5 -107.5q-166 0 -259 98t-93 266q0 172 107.5 276.5t260.5 104.5q160 0 259.5 -89t99.5 -267zM1358 311q0 70 -14.5 94.5t-45.5 24.5q-63 0 -63 -121t59 -121q27 0 45.5 31t18.5 92z" />
<glyph unicode="&#x26;" horiz-adv-x="1710" d="M1632 0h-397q-43 29 -164 117q-209 -145 -510 -146q-250 0 -369.5 121t-119.5 297q0 227 229 406q-88 98 -123 173.5t-35 170.5q0 162 125 272.5t344 110.5q201 0 310.5 -91.5t109.5 -248.5q0 -199 -223 -381q160 -133 254 -201q29 47 49 107l-72 12v252h576v-252 q-55 -10 -129 -19q-51 -174 -144 -311l162 -119q70 -6 127 -18v-252zM664 1161q0 35 -19.5 57.5t-54.5 22.5q-33 0 -55.5 -23.5t-22.5 -58.5q0 -61 72 -145q80 75 80 147zM793 334q-160 129 -269 235q-63 -70 -63 -137q0 -55 42 -98t115 -43q89 0 175 43z" />
<glyph unicode="'" horiz-adv-x="493" d="M428 1563l-41 -594h-281l-40 594h362z" />
<glyph unicode="(" horiz-adv-x="675" d="M684 -395h-360q-270 442 -271 981q0 535 273 983h350q-254 -432 -254 -975q0 -547 262 -989z" />
<glyph unicode=")" horiz-adv-x="675" d="M621 594q0 -545 -275 -989h-352q258 438 258 981q0 545 -258 983h360q267 -449 267 -975z" />
<glyph unicode="*" horiz-adv-x="819" d="M778 1077l-129 -221l-157 145l47 -210h-258l47 210l-160 -143l-127 219l205 66l-205 65l129 222l158 -146l-47 211h256l-45 -211l157 146l129 -222l-205 -65z" />
<glyph unicode="+" horiz-adv-x="1167" d="M1126 373h-364v-373h-356v373h-365v311h365v369h356v-369h364v-311z" />
<glyph unicode="," horiz-adv-x="614" d="M211 -410l-150 134q113 121 129.5 195.5t-51.5 148.5q-39 43 -46 102t13.5 112.5t73.5 90.5t127 37q129 0 193 -121q78 -152 -17 -361q-79 -178 -272 -338z" />
<glyph unicode="-" horiz-adv-x="696" d="M614 381h-532v297h532v-297z" />
<glyph unicode="." horiz-adv-x="614" d="M307 420q92 0 158.5 -66.5t66.5 -159t-66.5 -159t-158.5 -66.5t-158.5 66.5t-66.5 159t66.5 159t158.5 66.5z" />
<glyph unicode="/" horiz-adv-x="886" d="M901 1382l-526 -1382h-377l528 1382h375z" />
<glyph unicode="0" horiz-adv-x="1230" d="M1174 530q0 -258 -167 -408.5t-411 -150.5q-111 0 -203 26t-170 85t-122 166.5t-44 259.5q0 260 168 414.5t402 154.5q127 0 226 -34.5t158.5 -89t97.5 -129t51.5 -145.5t13.5 -149zM803 532q0 106 -47 166t-138 60q-80 0 -135 -59.5t-55 -170.5q0 -229 190 -229 q80 0 132.5 60t52.5 173z" />
<glyph unicode="1" horiz-adv-x="802" d="M772 0h-741v246q100 18 202 24v445l-176 -72l-55 289l330 121h282v-783q78 -6 158 -24v-246z" />
<glyph unicode="2" horiz-adv-x="983" d="M918 0h-869v305l121 78q301 193 301 307q0 84 -96 84q-31 0 -62 -10q-2 -39 -14 -105h-240v347q170 68 375 67q215 0 335 -88t120 -244q0 -225 -254 -385l-55 -34v-5q129 10 338 11v-328z" />
<glyph unicode="3" horiz-adv-x="937" d="M408 1067q223 0 336.5 -95t113.5 -259q0 -98 -54 -176t-151 -121v-4q236 -61 236 -301q0 -203 -160 -338t-450 -135q-127 0 -238 26l29 324q86 -33 209 -33q205 0 204 127q0 160 -374 108v295q360 0 360 172q0 106 -94 107q-31 0 -58 -4q-4 -55 -14 -105h-240v346 q165 66 345 66z" />
<glyph unicode="4" horiz-adv-x="1175" d="M1124 0h-174v-92q72 -6 158 -25v-233h-702v233q100 18 178 25v92h-500l-59 301l460 760h465v-727h174v-334zM592 334v368h-2l-209 -370q45 2 211 2z" />
<glyph unicode="5" horiz-adv-x="937" d="M883 162q0 -231 -184.5 -379t-465.5 -148q-98 0 -184 17l33 328q78 -14 166 -15q117 0 177 41t60 109q0 137 -260 137q-74 0 -135 -10v811h754v-367l-404 4v-141q203 0 323 -103.5t120 -283.5z" />
<glyph unicode="6" horiz-adv-x="1187" d="M1141 479q0 -223 -158 -365.5t-405 -142.5q-233 0 -374 150.5t-141 441.5q0 393 212 630t581 237q63 0 150 -5v-331q-96 14 -168 14q-264 0 -357 -197q-6 -14 -16 -45l2 -2q86 59 240 60q201 0 317.5 -120t116.5 -325zM748 446q0 158 -134 158q-63 0 -100 -40t-37 -101 q0 -78 35 -123t96 -45q70 0 105 40.5t35 110.5z" />
<glyph unicode="7" horiz-adv-x="958" d="M924 739q-213 -526 -312 -1089h-413q109 567 313 1079h-150q-6 -78 -20 -145h-307v469h889v-314z" />
<glyph unicode="8" horiz-adv-x="1157" d="M1106 410q0 -207 -156.5 -323t-398.5 -116q-229 0 -364.5 105.5t-135.5 288.5q0 195 205 337l-2 3q-190 115 -191 323q0 193 146.5 307.5t374.5 114.5q229 0 364 -98.5t135 -268.5q0 -104 -50 -181t-146 -146q219 -133 219 -346zM698 1051q0 39 -31.5 65.5t-91.5 26.5 q-57 0 -88.5 -28t-31.5 -73q0 -39 33.5 -70.5t103.5 -70.5l2 -2q104 80 104 152zM711 395q0 88 -156 158h-2q-109 -72 -109 -150q0 -53 37 -84.5t97 -31.5q61 0 97 30.5t36 77.5z" />
<glyph unicode="9" horiz-adv-x="1187" d="M1124 467q0 -180 -45 -327.5t-139 -262.5t-254 -178.5t-373 -63.5q-66 0 -151 17v336q68 -27 162 -27q287 0 352 174q4 8 8 22.5t8 22.5l-2 2q-86 -68 -229 -67q-188 0 -301 119.5t-113 314.5q0 227 153.5 373.5t393.5 146.5q244 0 387 -150.5t143 -451.5zM705 604 q0 61 -33 101t-96.5 40t-101.5 -41.5t-38 -105.5q0 -158 135 -158q66 0 100 45t34 119z" />
<glyph unicode=":" horiz-adv-x="614" d="M307 971q92 0 158.5 -66.5t66.5 -159t-66.5 -159t-158.5 -66.5t-158.5 66.5t-66.5 159t66.5 159t158.5 66.5zM307 420q92 0 158.5 -66.5t66.5 -159t-66.5 -159t-158.5 -66.5t-158.5 66.5t-66.5 159t66.5 159t158.5 66.5z" />
<glyph unicode=";" horiz-adv-x="614" d="M532 745.5q0 -92.5 -66.5 -159t-158.5 -66.5t-158.5 66.5t-66.5 159t66.5 159t158.5 66.5t158.5 -66.5t66.5 -159zM307 410q129 0 193 -121q78 -152 -17 -361q-80 -178 -272 -338l-150 134q113 121 129.5 195.5t-51.5 148.5q-39 43 -46 102t13.5 112.5t73.5 90.5t127 37z " />
<glyph unicode="&#x3c;" horiz-adv-x="1044" d="M63 510l658 635l248 -248l-424 -385l426 -387l-246 -252z" />
<glyph unicode="=" horiz-adv-x="1126" d="M1024 592h-922v297h922v-297zM1024 141h-922v297h922v-297z" />
<glyph unicode="&#x3e;" horiz-adv-x="1044" d="M981 510l-657 -635l-248 248l424 385l-426 387l245 252z" />
<glyph unicode="?" horiz-adv-x="909" d="M852 1044q0 -82 -28.5 -148.5t-68.5 -105.5l-85 -82l-80 -74q-35 -32 -50.5 -83t5.5 -109h-365q-49 125 -14 218.5t96.5 141.5t121.5 102t60 102q0 162 -387 161l45 338q199 -4 348.5 -44t234.5 -106.5t126 -144.5t41 -166zM582 176q0 -86 -61.5 -145.5t-151.5 -59.5 t-151.5 59.5t-61.5 145.5t61.5 145.5t151.5 59.5t151.5 -59.5t61.5 -145.5z" />
<glyph unicode="@" horiz-adv-x="1595" d="M1542 848q0 -254 -133 -387t-356 -133q-84 0 -134.5 35.5t-56.5 101.5h-8q-90 -137 -240 -137q-90 0 -144 69.5t-54 208.5q0 209 113.5 338t342.5 129q133 0 232 -47l-57 -313q-14 -78 -6 -108t44 -30q147 0 148 254q0 139 -90 225.5t-287 86.5q-215 0 -359.5 -141.5 t-144.5 -370.5q0 -199 105.5 -297.5t349.5 -98.5q188 0 352 60v-262q-63 -31 -179 -49.5t-216 -18.5q-360 0 -543.5 168t-183.5 467q0 360 237.5 586.5t599.5 226.5q303 0 485.5 -159.5t182.5 -403.5zM831 858q-18 8 -43 8q-51 0 -87.5 -69.5t-36.5 -145.5q0 -82 30 -82 q33 0 69 57.5t58 176.5z" />
<glyph unicode="A" d="M1425 0h-620v246q86 14 123 18l-27 80h-395l-25 -80q37 -4 123 -18v-246h-584v248q53 14 89 16l364 1118h481l383 -1118q35 -2 88 -16v-248zM809 639l-43 131q-47 141 -64 240h-4q-14 -96 -67 -262l-35 -109h213z" />
<glyph unicode="B" horiz-adv-x="1327" d="M1272 442q0 -197 -150.5 -321.5t-435.5 -124.5q-23 0 -182.5 2t-294.5 2h-178v246q100 18 178 24v842q-78 6 -178 25v245h168q59 0 264 5.5t297 5.5q231 0 361 -90.5t130 -266.5q0 -92 -49 -170t-129 -118v-7q88 -31 143.5 -115t55.5 -184zM846 977q0 109 -148 108 q-43 0 -108 -4v-233q23 -2 82 -2q174 0 174 131zM860 438q0 57 -43 92t-129 35q-76 0 -98 -2v-252q49 -4 98 -4q78 0 125 34t47 97z" />
<glyph unicode="C" horiz-adv-x="1167" d="M1098 883h-303q-10 55 -23 153q-29 4 -49 4q-104 0 -174 -87t-70 -255q0 -180 78 -272t270 -92q125 0 248 41l21 -355q-172 -43 -346 -43q-346 0 -521.5 174.5t-175.5 483.5q0 362 191.5 563t541.5 201q143 0 312 -33v-483z" />
<glyph unicode="D" horiz-adv-x="1443" d="M1393 725q0 -350 -202 -542.5t-544 -192.5q-86 0 -256 5t-182 5h-178v246q100 18 178 24v842q-78 6 -178 25v245h168q45 0 221 4.5t287 4.5q686 0 686 -666zM981 694.5q0 184.5 -59.5 279.5t-235.5 95q-68 0 -96 -4v-739q25 -6 88 -7q135 0 219 95.5t84 280z" />
<glyph unicode="E" horiz-adv-x="1116" d="M1051 0h-1020v246q100 18 178 24v842q-78 6 -178 25v245h1013v-393h-294l-15 94h-145v-243h123q8 49 14 73h252v-413h-252q-6 25 -14 73h-123v-268h147q4 43 15 107h299v-412z" />
<glyph unicode="F" horiz-adv-x="1081" d="M1038 981h-295q-8 31 -14 96h-139v-260h127q8 49 14 74h252v-434h-252q-6 25 -14 73h-127v-260q78 -6 178 -24v-246h-737v246q100 18 178 24v842q-78 6 -178 25v245h1007v-401z" />
<glyph unicode="G" horiz-adv-x="1380" d="M1350 502q-29 -6 -86 -15v-415q-215 -96 -502 -97q-342 0 -525.5 181.5t-183.5 496.5q0 344 217 548t584 204q190 0 401 -51v-439h-307q-14 70 -20 142q-35 8 -88 8q-180 0 -276.5 -103.5t-96.5 -281.5q0 -168 84 -262t254 -94q43 0 78 10v149q-86 6 -172 25v246h639 v-252z" />
<glyph unicode="H" horiz-adv-x="1593" d="M1563 0h-689v252q55 10 130 18v275h-414v-275q74 -8 129 -18v-252h-688v246q100 18 178 24v842q-78 6 -178 25v245h688v-252q-55 -10 -129 -18v-233h414v233q-74 8 -130 18v252h689v-245q-100 -18 -179 -25v-842q78 -6 179 -24v-246z" />
<glyph unicode="I" horiz-adv-x="798" d="M768 0h-737v246q100 18 178 24v842q-78 6 -178 25v245h737v-245q-100 -18 -178 -25v-842q78 -6 178 -24v-246z" />
<glyph unicode="J" horiz-adv-x="780" d="M750 1130q-53 -12 -111 -18v-688q0 -88 -20.5 -164t-64.5 -141.5t-128 -103.5t-201 -38q-109 0 -194 17v319q49 -16 104 -16q123 0 123 135v680q-78 6 -178 25v245h670v-252z" />
<glyph unicode="K" horiz-adv-x="1513" d="M1483 0h-668v252q49 8 66 10l-291 404v-396q57 -6 110 -18v-252h-669v246q100 18 178 24v842q-78 6 -178 25v245h669v-252q-53 -12 -110 -18v-362l291 370q-33 4 -58 10v252h629v-249q-63 -10 -104 -15l-332 -395l362 -459q41 -4 105 -14v-250z" />
<glyph unicode="L" horiz-adv-x="1064" d="M1034 0h-1003v246q100 18 178 24v842q-78 6 -178 25v245h737v-245q-100 -18 -178 -25v-797h135q6 57 18 142h291v-457z" />
<glyph unicode="M" horiz-adv-x="1945" d="M1206 1382h643v-245q-100 -18 -178 -25l160 -848q43 -2 84 -12v-252h-604v246q68 12 119 18l-52 277q-35 203 -39 243h-4q-35 -186 -86 -372l-112 -412h-357l-108 367q-66 227 -92 417h-5q-10 -82 -38 -252l-45 -268q51 -6 118 -18v-246h-579v252q41 10 84 12l164 848 q-78 6 -179 25v245h656l145 -479q41 -137 74 -313h4q27 156 80 319z" />
<glyph unicode="N" horiz-adv-x="1583" d="M1552 1130q-53 -12 -110 -18v-1112h-484l-256 477q-70 131 -137 311q10 -109 10 -518q70 -8 125 -18v-252h-669v246q100 18 178 24v842q-78 6 -178 25v245h665l252 -479q66 -125 142 -297q-14 131 -15 506q-59 6 -110 18v252h587v-252z" />
<glyph unicode="O" horiz-adv-x="1435" d="M1393 715q0 -332 -201 -538t-502 -206q-319 0 -483 183.5t-164 517.5q0 328 203 533.5t499 205.5q291 0 469.5 -170t178.5 -526zM987 696q0 367 -270 367q-111 0 -189.5 -90t-78.5 -273q0 -379 260 -378q109 0 193.5 87.5t84.5 286.5z" />
<glyph unicode="P" horiz-adv-x="1220" d="M1198 930q0 -215 -143.5 -360.5t-407.5 -145.5q-31 0 -57 2v-156q78 -6 178 -24v-246h-737v246q100 18 178 24v842q-78 6 -178 25v245h174q23 0 179.5 5.5t242.5 5.5q279 0 425 -118t146 -345zM805 918q0 74 -43 119.5t-135 45.5q-20 0 -37 -2v-338q14 -2 28 -2 q78 0 132.5 47.5t54.5 129.5z" />
<glyph unicode="Q" horiz-adv-x="1435" d="M1393 715q0 -332 -201 -538t-502 -206q-319 0 -483 183.5t-164 517.5q0 328 203 533.5t499 205.5q291 0 469.5 -170t178.5 -526zM1430 -469q-112 -18 -214 -18q-23 0 -46 1q-122 5 -197.5 25.5t-185.5 31.5q-52 5 -105 5q-58 0 -117 -6v332q65 7 134 7q141 0 301 -31 q143 -28 269 -28q84 0 161 13v-332zM987 696q0 367 -270 367q-111 0 -189.5 -90t-78.5 -273q0 -379 260 -378q109 0 193.5 87.5t84.5 286.5z" />
<glyph unicode="R" horiz-adv-x="1327" d="M1290 0h-411l-248 504h-41v-234q43 -8 88 -18v-252h-647v246q100 18 178 24v842q-78 6 -178 25v245h164q8 0 196.5 5.5t290.5 5.5q272 0 410.5 -103.5t138.5 -328.5q0 -115 -58.5 -213.5t-166.5 -149.5q16 -20 41 -66l145 -264q8 -2 44 -7t54 -7v-254zM829 932 q0 147 -167 147q-47 0 -72 -4v-297q29 -4 63 -4q80 0 128 41t48 117z" />
<glyph unicode="S" horiz-adv-x="1038" d="M1006 459q0 -211 -158 -348.5t-420 -137.5q-184 0 -346 33v428h305q12 -84 16 -133h29q78 0 121 27.5t43 74.5q0 45 -41 77t-102.5 48.5t-133 47t-133 68.5t-102.5 120t-41 194q0 207 149.5 329t413.5 122q166 0 328 -33v-407h-305q-10 59 -17 125h-12q-147 0 -147 -97 q0 -47 57 -79.5t138 -61.5t162 -68.5t138.5 -123.5t57.5 -205z" />
<glyph unicode="T" horiz-adv-x="1277" d="M1247 1382v-456h-291q-16 88 -20 141h-107v-797q78 -6 179 -24v-246h-738v246q100 18 179 24v797h-107q-4 -53 -20 -141h-291v456h1216z" />
<glyph unicode="U" horiz-adv-x="1441" d="M1411 1130q-53 -12 -106 -18v-573q0 -567 -600 -568q-162 0 -275 40t-174 116t-88 166t-27 207v612q-59 6 -110 18v252h616v-252q-55 -10 -125 -18v-594q0 -117 45 -172t158 -55q115 0 159 53t44 184v584q-70 8 -125 18v252h608v-252z" />
<glyph unicode="V" horiz-adv-x="1388" d="M510 1118l129 -428q49 -160 68 -246h4q27 139 65 267l123 407q-25 2 -119 19v245h588v-252q-41 -10 -84 -12l-362 -1118h-449l-369 1118q-43 2 -84 12v252h613v-245q-86 -15 -123 -19z" />
<glyph unicode="W" horiz-adv-x="1988" d="M1968 1130q-41 -10 -84 -12l-272 -1118h-463l-115 518q-29 127 -53 352h-2q-10 -160 -51 -338l-121 -532h-432l-271 1118q-43 2 -84 12v252h609v-245q-86 -14 -125 -19l69 -301q29 -125 43 -301h2q23 176 52 295l145 571h383l141 -548q35 -137 54 -306h2q25 176 55 322 l57 268q-25 2 -118 19v245h579v-252z" />
<glyph unicode="X" horiz-adv-x="1527" d="M1507 0h-696v252q49 8 66 10l-150 197l-160 -197q16 -2 66 -10v-252h-613v250q63 10 105 14l381 434l-369 420q-41 4 -104 15v249h688v-252q-49 -8 -66 -10l142 -188l153 188q-16 2 -65 10v252h606v-249q-63 -10 -105 -15l-362 -424l379 -430q41 -4 104 -14v-250z" />
<glyph unicode="Y" horiz-adv-x="1302" d="M1282 1130q-41 -10 -84 -12l-358 -672v-176q78 -6 178 -24v-246h-737v246q100 18 178 24v174l-355 674q-47 4 -84 12v252h588v-252q-39 -8 -80 -12l68 -145q45 -94 61 -144h7q29 72 63 142l74 147q-43 2 -84 12v252h565v-252z" />
<glyph unicode="Z" horiz-adv-x="1093" d="M1018 0h-942v301l430 692q33 53 53 78q-23 -2 -92 -2h-66q-6 -61 -16 -123h-305v436h938v-315l-455 -688l-39 -57q20 2 103 2h78q4 49 16 133h297v-457z" />
<glyph unicode="[" horiz-adv-x="688" d="M621 -436h-519v2044h519v-301h-166v-1440h166v-303z" />
<glyph unicode="\" horiz-adv-x="860" d="M889 0h-363l-544 1382h358z" />
<glyph unicode="]" horiz-adv-x="688" d="M586 -436h-518v303h165v1440h-165v301h518v-2044z" />
<glyph unicode="^" horiz-adv-x="1095" d="M1022 803l-262 -131l-230 452l-219 -452l-243 127l329 583h279z" />
<glyph unicode="_" horiz-adv-x="1024" d="M1024 -516h-1024v303h1024v-303z" />
<glyph unicode="`" horiz-adv-x="778" d="M725 1335l-117 -219l-473 182l137 261z" />
<glyph unicode="a" horiz-adv-x="1171" d="M1141 14q-172 -19 -355 -19q-71 0 -143 3q0 84 8 131h-2q-37 -72 -116.5 -113t-178.5 -41q-147 0 -225 80t-78 211q0 193 155.5 283t399.5 96v37q0 47 -29.5 65.5t-109.5 18.5q-45 0 -82 -10q-2 -31 -14 -86h-240v325q203 53 363 54q276 0 382.5 -91.5t106.5 -287.5v-389 q84 -14 158 -21v-246zM606 385v33q-100 0 -152.5 -18.5t-52.5 -82.5q0 -29 20.5 -47t55.5 -18q55 0 92 40t37 93z" />
<glyph unicode="b" horiz-adv-x="1165" d="M489 1497v-358q0 -115 -14 -211h2q76 115 264 114q182 0 277.5 -127t95.5 -348q0 -256 -150.5 -425t-426.5 -169q-223 0 -420 58v1183q-84 14 -178 21v244q194 20 413 20q67 0 137 -2zM721 528q0 109 -24.5 156t-75.5 47q-55 0 -93.5 -61.5t-38.5 -173.5v-215 q33 -8 72 -9q160 0 160 256z" />
<glyph unicode="c" horiz-adv-x="915" d="M854 12q-135 -37 -276 -37q-266 0 -397.5 132.5t-131.5 369.5q0 244 140.5 403.5t428.5 159.5q121 0 232 -32v-373h-244q-8 43 -14 90q-6 2 -23 2q-55 0 -94 -54.5t-39 -154.5q0 -117 54.5 -167t171.5 -50q90 0 169 33z" />
<glyph unicode="d" horiz-adv-x="1236" d="M1206 16q-169 -21 -358 -21q-68 0 -137 3q0 72 6 117h-4q-94 -141 -293 -142q-178 0 -273.5 128t-95.5 348q0 254 148.5 423.5t408.5 169.5q31 0 68 -4v176q-84 14 -178 21v244q194 20 413 20q67 0 138 -2v-1216q82 -14 157 -21v-244zM676 528v209q-31 8 -72 8 q-160 0 -160 -256q0 -205 101 -204q55 0 93 63t38 180z" />
<glyph unicode="e" horiz-adv-x="1073" d="M1016 551q0 -76 -12 -160h-578q4 -57 59.5 -93t159.5 -36q158 0 301 64l33 -279q-180 -72 -393 -72q-537 0 -537 521q0 244 133 396t375 152q227 0 343 -135t116 -358zM653 633q0 7 1 14q0 127 -105 127q-53 0 -87 -39t-38 -102h229z" />
<glyph unicode="f" horiz-adv-x="813" d="M838 1501l-23 -303q-57 16 -106 16q-117 0 -117 -100v-96h182v-287h-182v-461q78 -6 178 -24v-246h-729v246q100 18 178 24v461h-178v287h178v94q0 205 105.5 305.5t337.5 100.5q88 -1 176 -17z" />
<glyph unicode="g" horiz-adv-x="1136" d="M1087 -68q0 -178 -159.5 -306t-423.5 -128q-449 0 -449 303q0 63 40 129t93 93q-96 49 -96 161q0 66 36 120t91 75q-152 78 -151 274q0 172 120.5 281.5t360.5 109.5q102 0 203 -26h342v-293h-90q4 -12 4 -43q0 -172 -116 -267.5t-337 -95.5h-43q-25 -12 -25 -34 q0 -27 25 -34t109 -7h114q352 -1 352 -312zM659 670q0 49 -31.5 78.5t-90.5 29.5q-53 0 -85 -28.5t-32 -75.5q0 -49 31.5 -79t91.5 -30q53 0 84.5 29t31.5 76zM723 -117q0 78 -92 78h-144h-30q-37 -31 -37 -86q0 -43 34.5 -69.5t102.5 -26.5q82 0 124 29.5t42 74.5z" />
<glyph unicode="h" horiz-adv-x="1359" d="M1329 0h-530v643q0 84 -58 84q-61 0 -110 -73.5t-49 -159.5v-224q74 -8 129 -18v-252h-680v246q100 18 178 24v944q-84 14 -178 21v244q194 20 413 20q67 0 138 -2v-375q0 -125 -19 -211h2q102 131 305 131q158 0 229.5 -89t71.5 -232v-451q78 -6 158 -24v-246z" />
<glyph unicode="i" horiz-adv-x="780" d="M629 1311q0 -88 -65.5 -151.5t-158 -63.5t-158 63.5t-65.5 151.5t65.5 151.5t158 63.5t158 -63.5t65.5 -151.5zM750 0h-709v246q100 18 178 24v467q-84 14 -178 21v243q194 20 414 21q67 0 137 -2v-750q74 -6 158 -24v-246z" />
<glyph unicode="j" horiz-adv-x="681" d="M621 1311q0 -88 -66 -151.5t-158 -63.5t-157.5 63.5t-65.5 151.5t65.5 151.5t157.5 63.5t158 -63.5t66 -151.5zM586 -23q0 -219 -114 -342.5t-357 -123.5q-78 0 -164 16l18 313q51 -18 125 -18q119 0 119 112v803q-84 14 -178 21v243q194 20 413 21q67 0 138 -2v-1043z " />
<glyph unicode="k" horiz-adv-x="1368" d="M1327 0h-399l-346 494v-224q57 -6 92 -18v-252h-643v246q100 18 178 24v944q-84 14 -178 21v244q194 20 413 20q67 0 138 -2v-934l143 193q-33 2 -59 10v252h639v-252q-53 -12 -121 -16l-185 -205l209 -275q59 -6 119 -18v-252z" />
<glyph unicode="l" horiz-adv-x="770" d="M582 270q72 -6 157 -24v-246h-708v246q100 18 178 24v944q-84 14 -178 21v244q194 20 413 20q67 0 138 -2v-1227z" />
<glyph unicode="m" horiz-adv-x="1951" d="M1391 0v631q0 96 -58 96q-55 0 -106 -70.5t-51 -164.5v-222q74 -8 129 -18v-252h-498v631q0 96 -57 96q-55 0 -106.5 -70.5t-51.5 -164.5v-222q74 -8 129 -18v-252h-680v246q100 18 178 24v467q-84 14 -178 21v243q190 21 385 22q69 0 139 -3q0 -74 -10 -139h2 q102 162 313 161q215 0 277 -161q43 76 125 118.5t182 42.5q309 0 309 -348v-424q72 -6 158 -24v-246h-530z" />
<glyph unicode="n" horiz-adv-x="1370" d="M809 0v643q0 84 -57 84q-61 0 -110.5 -72.5t-49.5 -158.5v-226q74 -8 129 -18v-252h-680v246q100 18 178 24v467q-84 14 -178 21v243q190 21 384 22q69 0 138 -3q0 -82 -10 -137h2q113 160 326 159q158 0 229.5 -89t71.5 -232v-451q72 -6 157 -24v-246h-530z" />
<glyph unicode="o" horiz-adv-x="1155" d="M1108 532q0 -250 -160 -403.5t-395 -153.5q-506 0 -506 504q0 254 159 408.5t398 154.5q248 0 376 -132t128 -378zM721 510q0 111 -32 162t-107 51q-61 0 -104.5 -51t-43.5 -152q0 -119 32 -170t107 -51q72 0 110 57.5t38 153.5z" />
<glyph unicode="p" horiz-adv-x="1247" d="M1206 569q0 -270 -137 -428.5t-416 -158.5q-43 0 -71 6v-195q78 -6 178 -24v-246h-729v246q100 18 178 24v944q-84 14 -178 21v243q189 21 380 22q69 0 138 -3q0 -49 -6 -117h4q88 139 291 139q178 0 273 -127t95 -346zM813 528q0 205 -100 205q-55 0 -93 -63.5 t-38 -180.5v-208q41 -8 71 -9q160 0 160 256z" />
<glyph unicode="q" horiz-adv-x="1144" d="M1217 -477h-719v246q100 18 178 24v92q0 121 14 221h-4q-78 -133 -256 -133q-186 0 -282.5 121t-96.5 352q0 258 150.5 427t431.5 169q213 0 416 -34v-1215q61 -4 168 -24v-246zM676 537v202q-49 6 -72 6q-160 0 -160 -256q0 -205 99 -204q55 0 94 64.5t39 187.5z" />
<glyph unicode="r" horiz-adv-x="894" d="M862 1044l-18 -368q-43 9 -78 9q-72 0 -113 -39q-61 -58 -61 -220v-156q78 -6 178 -24v-246h-729v246q100 18 178 24v467q-84 14 -178 21v243q190 21 384 22q69 0 138 -3q0 -61 -10 -154h2q95 178 294 179q6 -1 13 -1z" />
<glyph unicode="s" horiz-adv-x="909" d="M872 350q0 -166 -136 -270.5t-359 -104.5q-145 0 -307 35v326h245q8 -45 11 -90q31 -8 75 -8q96 0 97 61q0 29 -47.5 51.5t-115 43t-136 51t-115.5 93t-47 150.5q0 156 124 255t353 99q135 0 309 -34v-314h-243q-10 35 -15 90q-23 4 -63 4q-92 0 -92 -59q0 -29 48 -51.5 t115.5 -45t135 -52t115.5 -89t48 -141.5z" />
<glyph unicode="t" horiz-adv-x="778" d="M713 6q-123 -31 -236 -31q-188 0 -257.5 71t-69.5 267v418h-130v287h127v287l373 100v-387h193v-287h-191v-342q0 -57 19.5 -80.5t66.5 -23.5q51 0 105 14v-293z" />
<glyph unicode="u" horiz-adv-x="1339" d="M1309 14q-172 -19 -355 -19q-71 0 -143 3q0 72 8 137h-4q-113 -160 -326 -160q-158 0 -229.5 89.5t-71.5 232.5v440q-84 14 -157 21v246q175 18 386 18q70 0 144 -2v-645q0 -84 57 -84q61 0 110.5 72.5t49.5 158.5v217q-61 10 -129 17v250q159 17 344 17q77 0 158 -3 v-739q84 -14 158 -21v-246z" />
<glyph unicode="v" horiz-adv-x="1173" d="M1153 766q-41 -10 -82 -12l-237 -754h-492l-240 754q-41 2 -82 12v252h525v-252q-27 -4 -58 -8l27 -76q49 -143 82 -297h4q29 152 74 297l22 76q-31 4 -57 8v252h514v-252z" />
<glyph unicode="w" horiz-adv-x="1710" d="M1690 766q-41 -10 -82 -12l-222 -754h-405l-68 238q-31 106 -61 262h-2q-20 -109 -64 -256l-69 -244h-395l-220 754q-41 2 -82 12v252h515v-252q-20 -6 -48 -8l17 -62q39 -141 59 -239h4q18 127 72 301l80 260h315l74 -260q43 -152 76 -301h4q16 100 47 213l25 88 q-33 4 -48 8v252h478v-252z" />
<glyph unicode="x" horiz-adv-x="1103" d="M1083 0h-438l-110 272l-111 -272h-404v252q55 10 130 18l151 248l-139 230q-74 8 -129 18v252h411l119 -268l117 268h391v-252q-55 -10 -129 -18l-125 -232l137 -246q74 -8 129 -18v-252z" />
<glyph unicode="y" horiz-adv-x="1173" d="M1153 766q-41 -10 -82 -12l-270 -854q-72 -223 -188.5 -310.5t-309.5 -87.5q-92 0 -184 21l16 315q92 -27 162 -26q43 0 82 27.5t55 84.5l23 76h-115l-240 754q-49 4 -82 12v252h525v-252q-27 -4 -58 -8l27 -76q49 -143 82 -297h4q29 152 74 297l22 76q-31 4 -57 8v252 h514v-252z" />
<glyph unicode="z" horiz-adv-x="960" d="M899 0h-838v279l404 473q-29 -4 -82 -4h-55q-6 -47 -15 -91h-252v361h824v-281l-391 -450q25 2 79 2h60q6 47 14 90h252v-379z" />
<glyph unicode="{" horiz-adv-x="802" d="M739 -436h-53q-238 0 -343 124t-105 414v158q0 129 -49.5 179t-139.5 55v274q92 4 140.5 49t48.5 172v86q0 289 105.5 411t342.5 122h53v-301q-94 0 -123.5 -41t-29.5 -191v-86q0 -330 -187 -356v-4q186 -27 187 -369v-156q0 -152 29.5 -194.5t123.5 -42.5v-303z" />
<glyph unicode="|" horiz-adv-x="557" d="M420 -512h-297v2048h297v-2048z" />
<glyph unicode="}" horiz-adv-x="802" d="M754 494q-90 -4 -139.5 -54.5t-49.5 -179.5v-158q0 -291 -105.5 -414.5t-342.5 -123.5h-54v303q94 0 124 43t30 194v156q0 342 186 369v4q-186 27 -186 356v86q0 150 -29.5 191t-124.5 41v301h54q238 0 343 -122t105 -411v-86q0 -127 48.5 -172t140.5 -49v-274z" />
<glyph unicode="~" horiz-adv-x="1153" d="M1100 504q-113 -152 -334 -152q-82 0 -217 46t-199 46q-119 0 -192 -77l-111 280q137 131 334 131q94 0 215 -47t170 -47q115 0 223 94z" />
<glyph unicode="&#xa1;" horiz-adv-x="632" d="M514 840q0 -86 -61.5 -145.5t-151.5 -59.5t-151.5 59.5t-61.5 145.5t61.5 145t151.5 59t151.5 -59t61.5 -145zM500 -479h-404l35 1052h328z" />
<glyph unicode="&#xa2;" horiz-adv-x="999" d="M692 1067q88 -2 199 -31v-377h-244q-2 12 -7 49t-7 56q-20 2 -37 2q-55 2 -96 -53.5t-41 -153.5q0 -94 49 -138t156 -44q96 0 215 33l24 -326q-139 -27 -211 -31v-192h-274v198q-172 29 -259 158t-87 320q0 193 91 332t255 182v192h274v-176z" />
<glyph unicode="&#xa3;" horiz-adv-x="1103" d="M1026 0h-930v291q86 27 127 65.5t41 122.5q0 16 -10 113h-145v287h116q-18 135 -18 163q0 207 110.5 307.5t341.5 100.5q174 0 299 -37v-366h-243l-15 94q-8 2 -24 2q-90 0 -90 -115q0 -25 14 -149h207v-287h-178q4 -37 4 -64q0 -127 -86 -217q53 4 96 4h74q6 72 18 142 h291v-457z" />
<glyph unicode="&#xa4;" horiz-adv-x="1105" d="M1083 115l-295 -209l-145 196q-57 -10 -113 -10q-25 0 -73 4l-133 -186l-297 205l127 161q-53 90 -54 232q0 139 64 242l-135 178l293 202l137 -186q66 10 119 10q31 0 84 -4l129 185l292 -211l-122 -160q45 -94 45 -225t-66 -240zM686 530q0 84 -31.5 121t-99.5 37 q-53 0 -94 -42t-41 -124q0 -76 33.5 -120t95.5 -44q137 0 137 172z" />
<glyph unicode="&#xa5;" horiz-adv-x="1277" d="M1257 1130q-41 -10 -83 -12l-228 -356h189v-191h-310v-84h310v-194h-310v-51q78 -6 179 -25v-217h-734v217q100 18 179 25v51h-310v194h310v84h-310v191h189l-224 356q-47 4 -84 12v252h570v-252q-37 -8 -84 -12l53 -88q68 -113 82 -141h6q27 53 92 151l52 78 q-43 2 -84 12v252h550v-252z" />
<glyph unicode="&#xa6;" horiz-adv-x="557" d="M420 782h-297v754h297v-754zM420 -512h-297v774h297v-774z" />
<glyph unicode="&#xa7;" horiz-adv-x="1093" d="M1010 551q0 -92 -44 -176t-110 -133q74 -84 74 -217q0 -150 -138.5 -262.5t-431.5 -112.5q-90 0 -182 18l21 316q74 -23 161 -23q84 0 124 22.5t40 55.5t-32.5 66.5t-82 62.5t-105.5 73t-105 93t-82 128t-33 175t42 178t110 131q-72 84 -72 213q0 156 133 267.5 t410 111.5q100 0 163 -16l-16 -312q-63 20 -149 21q-137 0 -138 -68q0 -31 33 -63.5t82 -64t106.5 -78t106.5 -98.5t82 -133t33 -175zM680 500q0 31 -8 54.5t-32 49t-44 42.5l-68 55l-79 67q-33 -33 -33 -84q0 -57 41 -104.5t190 -159.5q33 29 33 80z" />
<glyph unicode="&#xa8;" horiz-adv-x="1118" d="M948 1311q0 -78 -54 -132.5t-132 -54.5t-132.5 54.5t-54.5 132.5t54.5 132t132.5 54t132 -54t54 -132zM504 1311q0 -78 -55.5 -132.5t-131 -54.5t-131 54.5t-55.5 132.5t55.5 132t131 54t131 -54t55.5 -132z" />
<glyph unicode="&#xa9;" horiz-adv-x="1576" d="M788.5 1399q296.5 0 507.5 -210t211 -509t-211 -509t-507.5 -210t-507.5 210t-211 509t211 509t507.5 210zM788.5 1126q-184.5 0 -315.5 -131t-131 -315t131 -315.5t315.5 -131.5t315.5 131.5t131 315.5t-131 315t-315.5 131zM1001 346q-119 -27 -202 -27 q-184 0 -274.5 90.5t-90.5 254.5q0 168 97.5 276.5t291.5 108.5q86 0 170 -23v-272h-182l-10 61h-17q-68 0 -67 -123q0 -78 30.5 -107.5t106.5 -29.5q55 0 131 25z" />
<glyph unicode="&#xaa;" horiz-adv-x="942" d="M918 627q-203 -20 -404 -15q0 63 6 101h-2q-29 -55 -91 -86t-140 -31q-117 0 -177.5 60.5t-60.5 158.5q0 147 121 215t315 74v26q0 35 -23.5 49.5t-86.5 14.5q-39 0 -64 -8q-4 -35 -12 -64h-188v246q154 41 286 41q217 0 301 -68.5t84 -218.5v-262q78 -12 136 -16v-217z M485 905v25q-53 0 -82.5 -4t-54 -21.5t-24.5 -50.5q0 -49 59 -49q43 0 72.5 30.5t29.5 69.5z" />
<glyph unicode="&#xab;" horiz-adv-x="1167" d="M555 838l-154 -324l160 -317l-307 -123l-205 440l211 444zM1090 817l-168 -303l174 -297l-297 -127l-230 424l236 428z" />
<glyph unicode="&#xac;" horiz-adv-x="1228" d="M1120 100h-334v283h-725v301h1059v-584z" />
<glyph unicode="&#xad;" horiz-adv-x="696" d="M614 381h-532v297h532v-297z" />
<glyph unicode="&#xae;" horiz-adv-x="1159" d="M1100 1092q0 -213 -151.5 -360.5t-369 -147.5t-369 147.5t-151.5 360.5t151.5 360t369 147t369 -147t151.5 -360zM889 1092q0 127 -91 218t-218 91t-218.5 -91t-91.5 -218t91.5 -218.5t218.5 -91.5t218 91.5t91 218.5zM786 872h-151l-41 146h-31v-39q10 0 29 -6v-101 h-207v99l37 8v227l-4 2q-6 2 -16.5 3t-16.5 3v99h51q4 0 63.5 2t92.5 2q193 0 192 -139q0 -78 -57 -115l12 -23l21 -61q4 0 13 -2t13 -4v-101zM627 1165q0 31 -41 31q-18 0 -23 -2v-61q2 0 9.5 -1.5t11.5 -1.5q43 0 43 35z" />
<glyph unicode="&#xaf;" horiz-adv-x="583" d="M487 1180h-432v266h432v-266z" />
<glyph unicode="&#x2c9;" horiz-adv-x="583" d="M487 1180h-432v266h432v-266z" />
<glyph unicode="&#xb0;" horiz-adv-x="829" d="M758 1214q0 -158 -106.5 -243.5t-258.5 -85.5q-158 0 -249 86t-91 237q0 147 109.5 235.5t249.5 88.5q178 0 262 -88.5t84 -229.5zM492 1217q0 37 -23 63.5t-57 26.5q-41 0 -67 -27t-26 -70q0 -45 24 -70.5t65 -25.5t62.5 29t21.5 74z" />
<glyph unicode="&#xb1;" horiz-adv-x="1249" d="M1147 522h-344v-342h-357v342h-344v307h344v338h357v-338h344v-307zM1135 -213h-1020v311h1020v-311z" />
<glyph unicode="&#xb2;" horiz-adv-x="870" d="M809 553h-756v266l135 80q133 78 179.5 117t46.5 74q0 47 -66 47q-29 0 -55 -11q-2 -33 -14 -90h-224v305q162 59 361 60q377 0 377 -254q0 -162 -168 -262l-86 -51q98 6 270 6v-287z" />
<glyph unicode="&#xb3;" horiz-adv-x="813" d="M782 825q0 -131 -130 -212t-361 -81q-104 0 -244 21l27 229q125 -23 200 -22q147 0 148 45q0 27 -18.5 38t-92 14t-223.5 -17v209q139 0 214 12t94.5 29.5t19.5 44.5q0 43 -68 43l-55 -7q-4 -35 -14 -71h-224v260q190 41 344 41q367 0 367 -221q0 -123 -111 -179 q61 -16 94 -64.5t33 -111.5z" />
<glyph unicode="&#xb4;" horiz-adv-x="819" d="M745 1300l-473 -182l-112 215l452 223z" />
<glyph unicode="&#xb5;" horiz-adv-x="1234" d="M1122 0h-348q0 61 4 109h-2q-27 -53 -80 -88t-118 -35q-49 0 -93 16h-2q2 -43 2 -174v-344h-372v1534h372v-590q0 -86 28 -115.5t77 -29.5q63 0 111.5 65.5t48.5 173.5v496h372v-1018z" />
<glyph unicode="&#x3bc;" horiz-adv-x="1234" d="M1122 0h-348q0 61 4 109h-2q-27 -53 -80 -88t-118 -35q-49 0 -93 16h-2q2 -43 2 -174v-344h-372v1534h372v-590q0 -86 28 -115.5t77 -29.5q63 0 111.5 65.5t48.5 173.5v496h372v-1018z" />
<glyph unicode="&#xb6;" horiz-adv-x="1253" d="M776 106v1276h422v-303h-117v-1276h-438v303h133zM610 1382v-960q-268 0 -400 135t-132 344q0 227 147 354t385 127z" />
<glyph unicode="&#xb7;" horiz-adv-x="655" d="M328 809q92 0 158.5 -66.5t66.5 -158.5t-66.5 -159t-158.5 -67t-159 67t-67 159t67 158.5t159 66.5z" />
<glyph unicode="&#x2219;" horiz-adv-x="655" d="M328 809q92 0 158.5 -66.5t66.5 -158.5t-66.5 -159t-158.5 -67t-159 67t-67 159t67 158.5t159 66.5z" />
<glyph unicode="&#xb8;" horiz-adv-x="819" d="M578 -104q35 -66 44 -124.5t-11.5 -115.5t-87 -105.5t-177.5 -80.5l-178 137q188 109 78 289h332z" />
<glyph unicode="&#xb9;" horiz-adv-x="763" d="M573 803q84 -10 150 -25v-225h-682v225q90 18 174 25v276l-139 -61l-51 278l237 86h311v-579z" />
<glyph unicode="&#xba;" horiz-adv-x="890" d="M840 1008q0 -188 -119 -303t-297 -115q-164 0 -268.5 96t-104.5 303q0 197 119 309.5t293 112.5q377 0 377 -403zM553 999q0 84 -25.5 122t-83.5 38q-45 0 -76.5 -39t-31.5 -121q0 -160 104 -159q113 -1 113 159z" />
<glyph unicode="&#xbb;" horiz-adv-x="1167" d="M612 195l154 323l-160 318l307 122l205 -440l-211 -444zM78 215l168 303l-174 297l297 127l229 -424l-236 -428z" />
<glyph unicode="&#xbc;" horiz-adv-x="2105" d="M2073 231h-117v-32q63 -6 106 -17v-182h-573v182q70 10 129 17v32h-354l-41 271l311 327h422v-366h117v-232zM1626 1513l-833 -1730h-385l835 1730h383zM723 553h-682v225q90 18 174 25v276l-139 -61l-51 278l237 86h311v-579q84 -10 150 -25v-225zM1624 459v153 l-145 -155q32 2 145 2z" />
<glyph unicode="&#xbd;" horiz-adv-x="2146" d="M2107 0h-755v266l135 80q133 78 179 117t46 74q0 47 -65 47q-29 0 -56 -11q-2 -33 -14 -90h-223v305q162 59 360 60q377 0 377 -254q0 -162 -168 -262l-86 -51q166 6 270 6v-287zM1626 1513l-833 -1730h-385l835 1730h383zM723 553h-682v225q90 18 174 25v276l-139 -61 l-51 278l237 86h311v-579q84 -10 150 -25v-225z" />
<glyph unicode="&#xbe;" horiz-adv-x="2105" d="M2052 231h-117v-32q63 -6 107 -17v-182h-574v182q70 10 129 17v32h-354l-41 271l311 327h422v-366h117v-232zM1606 1513l-834 -1730h-385l836 1730h383zM782 825q0 -131 -130 -212t-361 -81q-104 0 -244 21l27 229q125 -23 200 -22q147 0 148 45q0 27 -18.5 38t-92 14 t-223.5 -17v209q139 0 214 12t94.5 29.5t19.5 44.5q0 43 -68 43l-55 -7q-4 -35 -14 -71h-224v260q190 41 344 41q367 0 367 -221q0 -123 -111 -179q61 -16 94 -64.5t33 -111.5zM1604 459v153l-146 -155q33 2 146 2z" />
<glyph unicode="&#xbf;" horiz-adv-x="909" d="M754 840q0 -86 -61.5 -145.5t-151.5 -59.5t-151.5 59.5t-61.5 145.5t61.5 145t151.5 59t151.5 -59t61.5 -145zM852 -152l-45 -337q-199 4 -348.5 43.5t-234.5 106.5t-126 144.5t-41 165.5q0 82 29 148.5t69 106.5l85 82l79 74q35 32 50.5 83t-4.5 108h364 q49 -125 14.5 -218t-96 -141t-122 -102.5t-60.5 -101.5q0 -162 387 -162z" />
<glyph unicode="&#xc0;" d="M1425 0h-620v246q86 14 123 18l-27 80h-395l-25 -80q37 -4 123 -18v-246h-584v248q53 14 89 16l364 1118h481l383 -1118q35 -2 88 -16v-248zM809 639l-43 131q-47 141 -64 240h-4q-14 -96 -67 -262l-35 -109h213zM958 1663l-116 -219l-473 182l137 260z" />
<glyph unicode="&#xc1;" d="M1425 0h-620v246q86 14 123 18l-27 80h-395l-25 -80q37 -4 123 -18v-246h-584v248q53 14 89 16l364 1118h481l383 -1118q35 -2 88 -16v-248zM809 639l-43 131q-47 141 -64 240h-4q-14 -96 -67 -262l-35 -109h213zM1069 1628l-473 -182l-113 215l453 223z" />
<glyph unicode="&#xc2;" d="M1425 0h-620v246q86 14 123 18l-27 80h-395l-25 -80q37 -4 123 -18v-246h-584v248q53 14 89 16l364 1118h481l383 -1118q35 -2 88 -16v-248zM809 639l-43 131q-47 141 -64 240h-4q-14 -96 -67 -262l-35 -109h213zM1067 1681l-96 -221l-254 117l-254 -117l-92 219l346 166 z" />
<glyph unicode="&#xc3;" d="M1425 0h-620v246q86 14 123 18l-27 80h-395l-25 -80q37 -4 123 -18v-246h-584v248q53 14 89 16l364 1118h481l383 -1118q35 -2 88 -16v-248zM809 639l-43 131q-47 141 -64 240h-4q-14 -96 -67 -262l-35 -109h213zM1090 1544q-39 -33 -108 -62.5t-124 -29.5q-92 0 -180 52 t-154 52q-72 0 -141 -65l-64 246q113 96 230 96q82 0 174 -52t156 -52q86 0 147 61z" />
<glyph unicode="&#xc4;" d="M1425 0h-620v246q86 14 123 18l-27 80h-395l-25 -80q37 -4 123 -18v-246h-584v248q53 14 89 16l364 1118h481l383 -1118q35 -2 88 -16v-248zM809 639l-43 131q-47 141 -64 240h-4q-14 -96 -67 -262l-35 -109h213zM1118 1638.5q0 -77.5 -55 -132t-131 -54.5t-131.5 54.5 t-55.5 132t55.5 132t131.5 54.5t131 -54.5t55 -132zM674 1638.5q0 -77.5 -54.5 -132t-132 -54.5t-132 54.5t-54.5 132t54.5 132t132 54.5t132 -54.5t54.5 -132z" />
<glyph unicode="&#xc5;" d="M1425 0h-620v246q86 14 123 18l-27 80h-395l-25 -80q37 -4 123 -18v-246h-584v248q53 14 89 16l364 1118h481l383 -1118q35 -2 88 -16v-248zM809 639l-43 131q-47 141 -64 240h-4q-14 -96 -67 -262l-35 -109h213zM1014 1591q0 -123 -87 -203.5t-214 -80.5t-214 80.5 t-87 203.5t87 204t214 81t214 -81t87 -204zM811 1591q0 39 -28.5 69t-69.5 30t-70 -30t-29 -69t29 -68.5t70 -29.5t69.5 29.5t28.5 68.5z" />
<glyph unicode="&#xc6;" horiz-adv-x="1679" d="M1614 0h-963v252q86 14 123 18v74h-340l-35 -80q35 -4 86 -18v-246h-546v248q53 14 88 16l413 848q-78 6 -178 25v245h1346v-393h-295l-15 94h-145v-243h123q8 49 14 73h252v-413h-252q-6 25 -14 73h-123v-268h147q4 43 15 107h299v-412zM774 639v442h-10 q-100 -240 -137 -319l-56 -123h203z" />
<glyph unicode="&#xc7;" horiz-adv-x="1167" d="M1098 883h-303q-10 55 -23 153q-29 4 -49 4q-104 0 -174 -87t-70 -255q0 -180 78 -272t270 -92q125 0 248 41l21 -355q-172 -43 -346 -43q-346 0 -521.5 174.5t-175.5 483.5q0 362 191.5 563t541.5 201q143 0 312 -33v-483zM850 -104q35 -66 44 -124.5t-11.5 -115.5 t-87 -105.5t-177.5 -80.5l-178 137q188 109 78 289h332z" />
<glyph unicode="&#xc8;" horiz-adv-x="1116" d="M1051 0h-1020v246q100 18 178 24v842q-78 6 -178 25v245h1013v-393h-294l-15 94h-145v-243h123q8 49 14 73h252v-413h-252q-6 25 -14 73h-123v-268h147q4 43 15 107h299v-412zM780 1663l-116 -219l-474 182l138 260z" />
<glyph unicode="&#xc9;" horiz-adv-x="1116" d="M1051 0h-1020v246q100 18 178 24v842q-78 6 -178 25v245h1013v-393h-294l-15 94h-145v-243h123q8 49 14 73h252v-413h-252q-6 25 -14 73h-123v-268h147q4 43 15 107h299v-412zM965 1628l-473 -182l-113 215l452 223z" />
<glyph unicode="&#xca;" horiz-adv-x="1116" d="M1051 0h-1020v246q100 18 178 24v842q-78 6 -178 25v245h1013v-393h-294l-15 94h-145v-243h123q8 49 14 73h252v-413h-252q-6 25 -14 73h-123v-268h147q4 43 15 107h299v-412zM932 1681l-96 -221l-254 117l-254 -117l-92 219l346 166z" />
<glyph unicode="&#xcb;" horiz-adv-x="1116" d="M1051 0h-1020v246q100 18 178 24v842q-78 6 -178 25v245h1013v-393h-294l-15 94h-145v-243h123q8 49 14 73h252v-413h-252q-6 25 -14 73h-123v-268h147q4 43 15 107h299v-412zM971 1638.5q0 -77.5 -55.5 -132t-131 -54.5t-131 54.5t-55.5 132t55.5 132t131 54.5 t131 -54.5t55.5 -132zM526 1638.5q0 -77.5 -54 -132t-132 -54.5t-132 54.5t-54 132t54 132t132 54.5t132 -54.5t54 -132z" />
<glyph unicode="&#xcc;" horiz-adv-x="798" d="M664 1663l-117 -219l-473 182l137 260zM758 0h-738v246q100 18 179 24v842q-78 6 -179 25v245h738v-245q-100 -18 -178 -25v-842q78 -6 178 -24v-246z" />
<glyph unicode="&#xcd;" horiz-adv-x="798" d="M686 1628l-473 -182l-113 215l453 223zM758 0h-738v246q100 18 179 24v842q-78 6 -179 25v245h738v-245q-100 -18 -178 -25v-842q78 -6 178 -24v-246z" />
<glyph unicode="&#xce;" horiz-adv-x="798" d="M741 1681l-96 -221l-254 117l-254 -117l-92 219l346 166zM758 0h-738v246q100 18 179 24v842q-78 6 -179 25v245h738v-245q-100 -18 -178 -25v-842q78 -6 178 -24v-246z" />
<glyph unicode="&#xcf;" horiz-adv-x="798" d="M795 1638.5q0 -77.5 -55.5 -132t-131.5 -54.5t-131 54.5t-55 132t55 132t131 54.5t131.5 -54.5t55.5 -132zM350 1638.5q0 -77.5 -54 -132t-132 -54.5t-132.5 54.5t-54.5 132t54.5 132t132.5 54.5t132 -54.5t54 -132zM758 0h-738v246q100 18 179 24v842q-78 6 -179 25v245 h738v-245q-100 -18 -178 -25v-842q78 -6 178 -24v-246z" />
<glyph unicode="&#xd0;" horiz-adv-x="1433" d="M1380 725q0 -350 -200.5 -542.5t-544.5 -192.5q-74 0 -219.5 5t-216.5 5h-179v246q100 18 179 24v279h-107v287h107v276q-78 6 -179 25v245h168q47 0 223.5 4.5t286.5 4.5q324 0 503 -155t179 -511zM973 694.5q0 184.5 -59.5 279.5t-235.5 95q-68 0 -98 -4v-229h186v-287 h-186v-223q27 -6 90 -7q135 0 219 95.5t84 280z" />
<glyph unicode="&#xd1;" horiz-adv-x="1583" d="M1552 1130q-53 -12 -110 -18v-1112h-484l-256 477q-70 131 -137 311q10 -109 10 -518q70 -8 125 -18v-252h-669v246q100 18 178 24v842q-78 6 -178 25v245h665l252 -479q66 -125 142 -297q-14 131 -15 506q-59 6 -110 18v252h587v-252zM1223 1544q-39 -33 -107.5 -62.5 t-124.5 -29.5q-92 0 -180 52t-154 52q-72 0 -141 -65l-63 246q113 96 229 96q84 0 174 -52t156 -52q86 0 147 61z" />
<glyph unicode="&#xd2;" horiz-adv-x="1435" d="M1393 715q0 -332 -201 -538t-502 -206q-319 0 -483 183.5t-164 517.5q0 328 203 533.5t499 205.5q291 0 469.5 -170t178.5 -526zM987 696q0 367 -270 367q-111 0 -189.5 -90t-78.5 -273q0 -379 260 -378q109 0 193.5 87.5t84.5 286.5zM983 1663l-117 -219l-473 182 l137 260z" />
<glyph unicode="&#xd3;" horiz-adv-x="1435" d="M1393 715q0 -332 -201 -538t-502 -206q-319 0 -483 183.5t-164 517.5q0 328 203 533.5t499 205.5q291 0 469.5 -170t178.5 -526zM987 696q0 367 -270 367q-111 0 -189.5 -90t-78.5 -273q0 -379 260 -378q109 0 193.5 87.5t84.5 286.5zM1108 1628l-473 -182l-113 215 l453 223z" />
<glyph unicode="&#xd4;" horiz-adv-x="1435" d="M1393 715q0 -332 -201 -538t-502 -206q-319 0 -483 183.5t-164 517.5q0 328 203 533.5t499 205.5q291 0 469.5 -170t178.5 -526zM987 696q0 367 -270 367q-111 0 -189.5 -90t-78.5 -273q0 -379 260 -378q109 0 193.5 87.5t84.5 286.5zM1090 1681l-97 -221l-254 117 l-254 -117l-92 219l346 166z" />
<glyph unicode="&#xd5;" horiz-adv-x="1435" d="M1393 715q0 -332 -201 -538t-502 -206q-319 0 -483 183.5t-164 517.5q0 328 203 533.5t499 205.5q291 0 469.5 -170t178.5 -526zM987 696q0 367 -270 367q-111 0 -189.5 -90t-78.5 -273q0 -379 260 -378q109 0 193.5 87.5t84.5 286.5zM1116 1554q-39 -33 -107.5 -62.5 t-123.5 -29.5q-92 0 -180.5 52.5t-153.5 52.5q-72 0 -141 -66l-64 246q113 96 229 96q84 0 174.5 -52t155.5 -52q86 0 148 61z" />
<glyph unicode="&#xd6;" horiz-adv-x="1435" d="M1393 715q0 -332 -201 -538t-502 -206q-319 0 -483 183.5t-164 517.5q0 328 203 533.5t499 205.5q291 0 469.5 -170t178.5 -526zM987 696q0 367 -270 367q-111 0 -189.5 -90t-78.5 -273q0 -379 260 -378q109 0 193.5 87.5t84.5 286.5zM1159 1638.5q0 -77.5 -55 -132 t-131 -54.5t-131.5 54.5t-55.5 132t55.5 132t131.5 54.5t131 -54.5t55 -132zM715 1638.5q0 -77.5 -54.5 -132t-132 -54.5t-132 54.5t-54.5 132t54.5 132t132 54.5t132 -54.5t54.5 -132z" />
<glyph unicode="&#xd7;" horiz-adv-x="1191" d="M1083 801l-274 -275l278 -278l-229 -230l-278 279l-277 -279l-203 203l277 279l-275 276l230 228l274 -275l275 275z" />
<glyph unicode="&#xd8;" horiz-adv-x="1423" d="M1380 702q0 -322 -197.5 -526.5t-488.5 -204.5q-53 0 -78 2l-63 -192l-272 82l63 188q-301 162 -301 621q0 338 192.5 538.5t497.5 200.5q41 0 62 -2l61 186l270 -82l-57 -176q311 -158 311 -635zM999 690q0 193 -55 271l-217 -656q23 0 47 6q94 23 159.5 114t65.5 265z M682 1065q-45 -4 -82 -21q-176 -74 -176 -350q0 -188 49 -258z" />
<glyph unicode="&#xd9;" horiz-adv-x="1441" d="M1411 1130q-53 -12 -106 -18v-573q0 -567 -600 -568q-162 0 -275 40t-174 116t-88 166t-27 207v612q-59 6 -110 18v252h616v-252q-55 -10 -125 -18v-594q0 -117 45 -172t158 -55q115 0 159 53t44 184v584q-70 8 -125 18v252h608v-252zM907 1663l-116 -219l-474 182 l138 260z" />
<glyph unicode="&#xda;" horiz-adv-x="1441" d="M1411 1130q-53 -12 -106 -18v-573q0 -567 -600 -568q-162 0 -275 40t-174 116t-88 166t-27 207v612q-59 6 -110 18v252h616v-252q-55 -10 -125 -18v-594q0 -117 45 -172t158 -55q115 0 159 53t44 184v584q-70 8 -125 18v252h608v-252zM1118 1628l-473 -182l-113 215 l453 223z" />
<glyph unicode="&#xdb;" horiz-adv-x="1441" d="M1411 1130q-53 -12 -106 -18v-573q0 -567 -600 -568q-162 0 -275 40t-174 116t-88 166t-27 207v612q-59 6 -110 18v252h616v-252q-55 -10 -125 -18v-594q0 -117 45 -172t158 -55q115 0 159 53t44 184v584q-70 8 -125 18v252h608v-252zM1059 1681l-96 -221l-254 117 l-254 -117l-93 219l347 166z" />
<glyph unicode="&#xdc;" horiz-adv-x="1441" d="M1411 1130q-53 -12 -106 -18v-573q0 -567 -600 -568q-162 0 -275 40t-174 116t-88 166t-27 207v612q-59 6 -110 18v252h616v-252q-55 -10 -125 -18v-594q0 -117 45 -172t158 -55q115 0 159 53t44 184v584q-70 8 -125 18v252h608v-252zM1118 1638.5q0 -77.5 -55 -132 t-131 -54.5t-131.5 54.5t-55.5 132t55.5 132t131.5 54.5t131 -54.5t55 -132zM674 1638.5q0 -77.5 -54.5 -132t-132 -54.5t-132 54.5t-54.5 132t54.5 132t132 54.5t132 -54.5t54.5 -132z" />
<glyph unicode="&#xdd;" horiz-adv-x="1302" d="M1081 1626l-473 -182l-112 215l452 223zM1282 1130q-41 -10 -84 -12l-358 -672v-176q78 -6 178 -24v-246h-737v246q100 18 178 24v174l-355 674q-47 4 -84 12v252h588v-252q-39 -8 -80 -12l68 -145q45 -94 61 -144h7q29 72 63 142l74 147q-43 2 -84 12v252h565v-252z" />
<glyph unicode="&#xde;" horiz-adv-x="1316" d="M1286 723q0 -197 -141 -307.5t-379 -110.5q-86 0 -176 8v-43q78 -6 178 -24v-246h-737v246q100 18 178 24v842q-78 6 -178 25v245h737v-245q-100 -18 -178 -25v-41q92 10 182 10q252 0 383 -80.5t131 -277.5zM866 700q0 84 -143 84q-70 0 -133 -16v-152q51 -10 112 -10 q164 0 164 94z" />
<glyph unicode="&#xdf;" horiz-adv-x="1533" d="M1518 346q0 -154 -118 -256t-335 -102q-158 0 -293 22v338h246q10 -47 10 -86q23 -8 51 -8q59 0 60 57q0 37 -62.5 72t-137.5 65.5t-137.5 105.5t-62.5 183q0 78 39 137.5t78 109.5t39 110q0 43 -30.5 76.5t-98.5 33.5q-174 0 -174 -231v-703q80 -6 129 -24v-246h-680 v246q100 18 178 24v467q-84 14 -178 21v243q115 12 178 15q6 250 155.5 367.5t407.5 117.5q246 0 376 -99t130 -267q0 -74 -25.5 -128.5t-56 -79t-56.5 -58t-26 -72.5q0 -29 41 -57.5t98.5 -58.5t115 -69t98.5 -107.5t41 -158.5z" />
<glyph unicode="&#xe0;" horiz-adv-x="1171" d="M1141 14q-238 -27 -498 -16q0 84 8 131h-2q-37 -72 -116.5 -113t-178.5 -41q-147 0 -225 80t-78 211q0 193 155.5 283t399.5 96v37q0 47 -29.5 65.5t-109.5 18.5q-45 0 -82 -10q-2 -31 -14 -86h-240v325q203 53 363 54q276 0 382.5 -91.5t106.5 -287.5v-389 q84 -14 158 -21v-246zM606 385v33q-100 0 -152.5 -18.5t-52.5 -82.5q0 -29 20.5 -47t55.5 -18q55 0 92 40t37 93zM819 1335l-117 -219l-473 182l138 261z" />
<glyph unicode="&#xe1;" horiz-adv-x="1171" d="M1141 14q-238 -27 -498 -16q0 84 8 131h-2q-37 -72 -116.5 -113t-178.5 -41q-147 0 -225 80t-78 211q0 193 155.5 283t399.5 96v37q0 47 -29.5 65.5t-109.5 18.5q-45 0 -82 -10q-2 -31 -14 -86h-240v325q203 53 363 54q276 0 382.5 -91.5t106.5 -287.5v-389 q84 -14 158 -21v-246zM606 385v33q-100 0 -152.5 -18.5t-52.5 -82.5q0 -29 20.5 -47t55.5 -18q55 0 92 40t37 93zM897 1300l-473 -182l-113 215l453 223z" />
<glyph unicode="&#xe2;" horiz-adv-x="1171" d="M1141 14q-238 -27 -498 -16q0 84 8 131h-2q-37 -72 -116.5 -113t-178.5 -41q-147 0 -225 80t-78 211q0 193 155.5 283t399.5 96v37q0 47 -29.5 65.5t-109.5 18.5q-45 0 -82 -10q-2 -31 -14 -86h-240v325q203 53 363 54q276 0 382.5 -91.5t106.5 -287.5v-389 q84 -14 158 -21v-246zM606 385v33q-100 0 -152.5 -18.5t-52.5 -82.5q0 -29 20.5 -47t55.5 -18q55 0 92 40t37 93zM901 1354l-96 -221l-254 116l-254 -116l-92 219l346 166z" />
<glyph unicode="&#xe3;" horiz-adv-x="1171" d="M1141 14q-238 -27 -498 -16q0 84 8 131h-2q-37 -72 -116.5 -113t-178.5 -41q-147 0 -225 80t-78 211q0 193 155.5 283t399.5 96v37q0 47 -29.5 65.5t-109.5 18.5q-45 0 -82 -10q-2 -31 -14 -86h-240v325q203 53 363 54q276 0 382.5 -91.5t106.5 -287.5v-389 q84 -14 158 -21v-246zM606 385v33q-100 0 -152.5 -18.5t-52.5 -82.5q0 -29 20.5 -47t55.5 -18q55 0 92 40t37 93zM932 1217q-39 -33 -107.5 -63t-124.5 -30q-92 0 -180 52.5t-153 52.5q-72 0 -142 -66l-63 246q113 96 229 96q84 0 174 -52t156 -52q86 0 147 61z" />
<glyph unicode="&#xe4;" horiz-adv-x="1171" d="M1141 14q-238 -27 -498 -16q0 84 8 131h-2q-37 -72 -116.5 -113t-178.5 -41q-147 0 -225 80t-78 211q0 193 155.5 283t399.5 96v37q0 47 -29.5 65.5t-109.5 18.5q-45 0 -82 -10q-2 -31 -14 -86h-240v325q203 53 363 54q276 0 382.5 -91.5t106.5 -287.5v-389 q84 -14 158 -21v-246zM606 385v33q-100 0 -152.5 -18.5t-52.5 -82.5q0 -29 20.5 -47t55.5 -18q55 0 92 40t37 93zM956 1311q0 -78 -54 -132.5t-132 -54.5t-132 54.5t-54 132.5t54 132t132 54t132 -54t54 -132zM512 1311q0 -78 -55.5 -132.5t-131 -54.5t-131 54.5 t-55.5 132.5t55.5 132t131 54t131 -54t55.5 -132z" />
<glyph unicode="&#xe5;" horiz-adv-x="1171" d="M1141 14q-238 -27 -498 -16q0 84 8 131h-2q-37 -72 -116.5 -113t-178.5 -41q-147 0 -225 80t-78 211q0 193 155.5 283t399.5 96v37q0 47 -29.5 65.5t-109.5 18.5q-45 0 -82 -10q-2 -31 -14 -86h-240v325q203 53 363 54q276 0 382.5 -91.5t106.5 -287.5v-389 q84 -14 158 -21v-246zM606 385v33q-100 0 -152.5 -18.5t-52.5 -82.5q0 -29 20.5 -47t55.5 -18q55 0 92 40t37 93zM838 1380q0 -123 -87 -203.5t-214 -80.5t-214 80.5t-87 203.5t87 204t214 81t214 -81t87 -204zM635 1380q0 41 -28.5 70t-69.5 29t-70 -29t-29 -70t29 -69.5 t70 -28.5t69.5 28.5t28.5 69.5z" />
<glyph unicode="&#xe6;" horiz-adv-x="1619" d="M1563 551q0 -76 -13 -160h-577q4 -57 59 -93t160 -36q158 0 301 64l33 -279q-178 -72 -393 -72q-305 0 -435 172l-2 -4q-125 -168 -350 -168q-147 0 -221 80t-74 211q0 193 155.5 283t399.5 96v37q0 47 -29.5 65.5t-109.5 18.5q-45 0 -82 -10q-2 -31 -14 -86h-240v325 q203 53 365 54q227 0 344 -76h2q100 72 262 71q227 0 343 -135t116 -358zM1200 633q6 141 -104 141q-53 0 -87 -39t-38 -102h229zM606 385v33q-100 0 -152.5 -18.5t-52.5 -82.5q0 -27 20.5 -46t55.5 -19q55 0 92 40t37 93z" />
<glyph unicode="&#xe7;" horiz-adv-x="915" d="M854 12q-135 -37 -276 -37q-266 0 -397.5 132.5t-131.5 369.5q0 244 140.5 403.5t428.5 159.5q121 0 232 -32v-373h-244q-8 43 -14 90q-6 2 -23 2q-55 0 -94 -54.5t-39 -154.5q0 -117 54.5 -167t171.5 -50q90 0 169 33zM676 -104q35 -66 44 -124.5t-11.5 -115.5 t-87 -105.5t-177.5 -80.5l-178 137q188 109 78 289h332z" />
<glyph unicode="&#xe8;" horiz-adv-x="1073" d="M1016 551q0 -76 -12 -160h-578q4 -57 59.5 -93t159.5 -36q158 0 301 64l33 -279q-180 -72 -393 -72q-537 0 -537 521q0 244 133 396t375 152q227 0 343 -135t116 -358zM653 633q6 141 -104 141q-53 0 -87 -39t-38 -102h229zM821 1335l-116 -219l-474 182l138 261z" />
<glyph unicode="&#xe9;" horiz-adv-x="1073" d="M1016 551q0 -76 -12 -160h-578q4 -57 59.5 -93t159.5 -36q158 0 301 64l33 -279q-180 -72 -393 -72q-537 0 -537 521q0 244 133 396t375 152q227 0 343 -135t116 -358zM653 633q6 141 -104 141q-53 0 -87 -39t-38 -102h229zM915 1300l-473 -182l-112 215l452 223z" />
<glyph unicode="&#xea;" horiz-adv-x="1073" d="M1016 551q0 -76 -12 -160h-578q4 -57 59.5 -93t159.5 -36q158 0 301 64l33 -279q-180 -72 -393 -72q-537 0 -537 521q0 244 133 396t375 152q227 0 343 -135t116 -358zM653 633q6 141 -104 141q-53 0 -87 -39t-38 -102h229zM897 1354l-96 -221l-254 116l-254 -116 l-92 219l346 166z" />
<glyph unicode="&#xeb;" horiz-adv-x="1073" d="M1016 551q0 -76 -12 -160h-578q4 -57 59.5 -93t159.5 -36q158 0 301 64l33 -279q-180 -72 -393 -72q-537 0 -537 521q0 244 133 396t375 152q227 0 343 -135t116 -358zM653 633q6 141 -104 141q-53 0 -87 -39t-38 -102h229zM967 1311q0 -78 -55.5 -132.5t-131 -54.5 t-131 54.5t-55.5 132.5t55.5 132t131 54t131 -54t55.5 -132zM522 1311q0 -78 -54 -132.5t-132 -54.5t-132 54.5t-54 132.5t54 132t132 54t132 -54t54 -132z" />
<glyph unicode="&#xec;" horiz-adv-x="780" d="M590 1335l-117 -219l-473 182l137 261zM729 0h-709v246q100 18 179 24v467q-84 14 -179 21v243q254 27 551 19v-750q74 -6 158 -24v-246z" />
<glyph unicode="&#xed;" horiz-adv-x="780" d="M651 1300l-473 -182l-112 215l452 223zM729 0h-709v246q100 18 179 24v467q-84 14 -179 21v243q254 27 551 19v-750q74 -6 158 -24v-246z" />
<glyph unicode="&#xee;" horiz-adv-x="780" d="M711 1354l-97 -221l-254 116l-254 -116l-92 219l346 166zM729 0h-709v246q100 18 179 24v467q-84 14 -179 21v243q254 27 551 19v-750q74 -6 158 -24v-246z" />
<glyph unicode="&#xef;" horiz-adv-x="780" d="M750 1311q0 -78 -55.5 -132.5t-131.5 -54.5t-131 54.5t-55 132.5t55 132t131 54t131.5 -54t55.5 -132zM305 1311q0 -78 -54 -132.5t-132 -54.5t-132.5 54.5t-54.5 132.5t54.5 132t132.5 54t132 -54t54 -132zM729 0h-709v246q100 18 179 24v467q-84 14 -179 21v243 q254 27 551 19v-750q74 -6 158 -24v-246z" />
<glyph unicode="&#xf0;" horiz-adv-x="1161" d="M1085 629q0 -176 -50 -308.5t-133 -204t-175 -105.5t-188 -34q-248 2 -365 131.5t-117 358.5q0 215 134.5 348t361.5 133q109 0 156 -26q-14 96 -76 172l-98 -99l-244 142l88 88q-16 2 -45 2q-78 0 -160 -17v293q96 10 182 10q143 0 267 -43l98 99l244 -142l-107 -106 q227 -231 227 -692zM715 518q0 70 -29 101.5t-106 31.5q-152 0 -152 -182q0 -160 137 -160q66 0 108 55.5t42 153.5z" />
<glyph unicode="&#xf1;" horiz-adv-x="1370" d="M809 0v643q0 84 -57 84q-61 0 -110.5 -72.5t-49.5 -158.5v-226q74 -8 129 -18v-252h-680v246q100 18 178 24v467q-84 14 -178 21v243q258 29 522 19q0 -82 -10 -137h2q113 160 326 159q158 0 229.5 -89t71.5 -232v-451q72 -6 157 -24v-246h-530zM1047 1217 q-39 -33 -108 -63t-124 -30q-92 0 -180 52.5t-154 52.5q-72 0 -141 -66l-64 246q113 96 230 96q84 0 174 -52t156 -52q86 0 147 61z" />
<glyph unicode="&#xf2;" horiz-adv-x="1155" d="M1108 532q0 -250 -160 -403.5t-395 -153.5q-506 0 -506 504q0 254 159 408.5t398 154.5q248 0 376 -132t128 -378zM721 510q0 111 -32 162t-107 51q-61 0 -104.5 -51t-43.5 -152q0 -119 32 -170t107 -51q72 0 110 57.5t38 153.5zM846 1335l-117 -219l-473 182l137 261z " />
<glyph unicode="&#xf3;" horiz-adv-x="1155" d="M1108 532q0 -250 -160 -403.5t-395 -153.5q-506 0 -506 504q0 254 159 408.5t398 154.5q248 0 376 -132t128 -378zM721 510q0 111 -32 162t-107 51q-61 0 -104.5 -51t-43.5 -152q0 -119 32 -170t107 -51q72 0 110 57.5t38 153.5zM940 1300l-473 -182l-113 215l453 223z " />
<glyph unicode="&#xf4;" horiz-adv-x="1155" d="M1108 532q0 -250 -160 -403.5t-395 -153.5q-506 0 -506 504q0 254 159 408.5t398 154.5q248 0 376 -132t128 -378zM721 510q0 111 -32 162t-107 51q-61 0 -104.5 -51t-43.5 -152q0 -119 32 -170t107 -51q72 0 110 57.5t38 153.5zM944 1354l-96 -221l-254 116l-254 -116 l-92 219l346 166z" />
<glyph unicode="&#xf5;" horiz-adv-x="1155" d="M1108 532q0 -250 -160 -403.5t-395 -153.5q-506 0 -506 504q0 254 159 408.5t398 154.5q248 0 376 -132t128 -378zM721 510q0 111 -32 162t-107 51q-61 0 -104.5 -51t-43.5 -152q0 -119 32 -170t107 -51q72 0 110 57.5t38 153.5zM985 1217q-39 -33 -107.5 -63t-123.5 -30 q-92 0 -180.5 52.5t-153.5 52.5q-72 0 -141 -66l-64 246q113 96 229 96q84 0 174.5 -52t155.5 -52q86 0 148 61z" />
<glyph unicode="&#xf6;" horiz-adv-x="1155" d="M1108 532q0 -250 -160 -403.5t-395 -153.5q-506 0 -506 504q0 254 159 408.5t398 154.5q248 0 376 -132t128 -378zM721 510q0 111 -32 162t-107 51q-61 0 -104.5 -51t-43.5 -152q0 -119 32 -170t107 -51q72 0 110 57.5t38 153.5zM1008 1311q0 -78 -55.5 -132.5 t-131.5 -54.5t-131 54.5t-55 132.5t55 132t131 54t131.5 -54t55.5 -132zM563 1311q0 -78 -54 -132.5t-132 -54.5t-132.5 54.5t-54.5 132.5t54.5 132t132.5 54t132 -54t54 -132z" />
<glyph unicode="&#xf7;" horiz-adv-x="1290" d="M858 938q0 -88 -62.5 -150.5t-150.5 -62.5t-150.5 62.5t-62.5 150.5t62.5 150.5t150.5 62.5t150.5 -62.5t62.5 -150.5zM1188 373h-1086v311h1086v-311zM858 119q0 -88 -62.5 -150.5t-150.5 -62.5t-150.5 62.5t-62.5 150.5t62.5 150.5t150.5 62.5t150.5 -62.5t62.5 -150.5 z" />
<glyph unicode="&#xf8;" horiz-adv-x="1138" d="M1092 528q0 -252 -154 -404.5t-389 -152.5q-31 0 -76 4l-78 -200l-198 59l75 195q-225 119 -225 460q0 260 153.5 409t391.5 149q31 0 80 -5l71 189l199 -60l-72 -182q222 -115 222 -461zM752 518q0 82 -17 133l-147 -377l37 7q127 38 127 237zM555 743q-18 0 -41 -6 q-55 -18 -90 -76.5t-35 -152.5q0 -82 23 -129z" />
<glyph unicode="&#xf9;" horiz-adv-x="1339" d="M1309 14q-238 -27 -498 -16q0 72 8 137h-4q-113 -160 -326 -160q-158 0 -229.5 89.5t-71.5 232.5v440q-84 14 -157 21v246q233 25 530 16v-645q0 -84 57 -84q61 0 110.5 72.5t49.5 158.5v217q-61 10 -129 17v250q225 25 502 14v-739q84 -14 158 -21v-246zM860 1335 l-117 -219l-473 182l138 261z" />
<glyph unicode="&#xfa;" horiz-adv-x="1339" d="M1309 14q-238 -27 -498 -16q0 72 8 137h-4q-113 -160 -326 -160q-158 0 -229.5 89.5t-71.5 232.5v440q-84 14 -157 21v246q233 25 530 16v-645q0 -84 57 -84q61 0 110.5 72.5t49.5 158.5v217q-61 10 -129 17v250q225 25 502 14v-739q84 -14 158 -21v-246zM1028 1300 l-473 -182l-113 215l453 223z" />
<glyph unicode="&#xfb;" horiz-adv-x="1339" d="M1309 14q-238 -27 -498 -16q0 72 8 137h-4q-113 -160 -326 -160q-158 0 -229.5 89.5t-71.5 232.5v440q-84 14 -157 21v246q233 25 530 16v-645q0 -84 57 -84q61 0 110.5 72.5t49.5 158.5v217q-61 10 -129 17v250q225 25 502 14v-739q84 -14 158 -21v-246zM1001 1354 l-96 -221l-254 116l-254 -116l-92 219l346 166z" />
<glyph unicode="&#xfc;" horiz-adv-x="1339" d="M1309 14q-238 -27 -498 -16q0 72 8 137h-4q-113 -160 -326 -160q-158 0 -229.5 89.5t-71.5 232.5v440q-84 14 -157 21v246q233 25 530 16v-645q0 -84 57 -84q61 0 110.5 72.5t49.5 158.5v217q-61 10 -129 17v250q225 25 502 14v-739q84 -14 158 -21v-246zM1057 1311 q0 -78 -55.5 -132.5t-131 -54.5t-131 54.5t-55.5 132.5t55.5 132t131 54t131 -54t55.5 -132zM612 1311q0 -78 -54 -132.5t-132 -54.5t-132 54.5t-54 132.5t54 132t132 54t132 -54t54 -132z" />
<glyph unicode="&#xfd;" horiz-adv-x="1173" d="M997 1300l-473 -182l-112 215l452 223zM1153 766q-41 -10 -82 -12l-270 -854q-72 -223 -188.5 -310.5t-309.5 -87.5q-92 0 -184 21l16 315q92 -27 162 -26q43 0 82 27.5t55 84.5l23 76h-115l-240 754q-49 4 -82 12v252h525v-252q-27 -4 -58 -8l27 -76q49 -143 82 -297h4 q29 152 74 297l22 76q-31 4 -57 8v252h514v-252z" />
<glyph unicode="&#xfe;" horiz-adv-x="1187" d="M1141 569q0 -264 -137.5 -425.5t-415.5 -161.5q-43 0 -72 6v-195q78 -6 178 -24v-246h-729v246q100 18 178 24v1421q-84 14 -178 21v244q254 27 551 18v-375q0 -115 -8 -184h4q86 104 260 104q178 0 273.5 -127t95.5 -346zM748 528q0 205 -101 205q-55 0 -93 -63.5 t-38 -180.5v-208q41 -8 72 -9q160 0 160 256z" />
<glyph unicode="&#xff;" horiz-adv-x="1173" d="M1153 766q-41 -10 -82 -12l-270 -854q-72 -223 -188.5 -310.5t-309.5 -87.5q-92 0 -184 21l16 315q92 -27 162 -26q43 0 82 27.5t55 84.5l23 76h-115l-240 754q-49 4 -82 12v252h525v-252q-27 -4 -58 -8l27 -76q49 -143 82 -297h4q29 152 74 297l22 76q-31 4 -57 8v252 h514v-252zM969 1311q0 -78 -54.5 -132.5t-132 -54.5t-132 54.5t-54.5 132.5t54.5 132t132 54t132 -54t54.5 -132zM524 1311q0 -78 -55 -132.5t-131 -54.5t-131 54.5t-55 132.5t55 132t131 54t131 -54t55 -132z" />
<glyph unicode="&#x152;" horiz-adv-x="1683" d="M1618 0h-610q-61 0 -166 -11.5t-170 -11.5q-305 0 -466 185.5t-161 509t190.5 525.5t471.5 202q51 0 143 -8.5t139 -8.5h623v-393h-295l-14 94h-146v-243h123q8 49 14 73h252v-413h-252q-6 25 -14 73h-123v-268h148q4 43 14 107h299v-412zM776 330v719q-35 6 -71 6 q-117 0 -191 -96.5t-74 -260.5q0 -186 69 -281t193 -95q41 0 74 8z" />
<glyph unicode="&#x153;" horiz-adv-x="1722" d="M1665 551q0 -76 -12 -160h-578q4 -57 59.5 -93t159.5 -36q158 0 301 64l33 -279q-178 -72 -393 -72q-240 0 -371 107q-125 -106 -327 -107q-233 0 -361.5 121t-128.5 398q0 254 153.5 401t387.5 147q201 0 317 -90q121 92 301 92q227 0 343 -135t116 -358zM1303 633 q6 141 -105 141q-53 0 -87 -39t-38 -102h230zM713 510q0 119 -34 170t-114 51q-66 0 -110.5 -54t-44.5 -169q0 -119 32.5 -169t114.5 -50q76 0 116 59.5t40 161.5z" />
<glyph unicode="&#x178;" horiz-adv-x="1302" d="M1282 1130q-41 -10 -84 -12l-358 -672v-176q78 -6 178 -24v-246h-737v246q100 18 178 24v174l-355 674q-47 4 -84 12v252h588v-252q-39 -8 -80 -12l68 -145q45 -94 61 -144h7q29 72 63 142l74 147q-43 2 -84 12v252h565v-252zM1022 1638.5q0 -77.5 -54.5 -132t-132 -54.5 t-132 54.5t-54.5 132t54.5 132t132 54.5t132 -54.5t54.5 -132zM578 1638.5q0 -77.5 -55.5 -132t-131.5 -54.5t-131 54.5t-55 132t55 132t131 54.5t131.5 -54.5t55.5 -132z" />
<glyph unicode="&#x2c6;" horiz-adv-x="851" d="M776 1354l-96 -221l-254 116l-254 -116l-92 219l346 166z" />
<glyph unicode="&#x2dc;" horiz-adv-x="870" d="M831 1217q-39 -33 -107.5 -63t-123.5 -30q-92 0 -180 52.5t-154 52.5q-72 0 -141 -66l-64 246q113 96 230 96q82 0 174 -52t156 -52q86 0 147 61z" />
<glyph unicode="&#x2000;" horiz-adv-x="942" />
<glyph unicode="&#x2001;" horiz-adv-x="1886" />
<glyph unicode="&#x2002;" horiz-adv-x="942" />
<glyph unicode="&#x2003;" horiz-adv-x="1886" />
<glyph unicode="&#x2004;" horiz-adv-x="628" />
<glyph unicode="&#x2005;" horiz-adv-x="471" />
<glyph unicode="&#x2006;" horiz-adv-x="313" />
<glyph unicode="&#x2007;" horiz-adv-x="313" />
<glyph unicode="&#x2008;" horiz-adv-x="235" />
<glyph unicode="&#x2009;" horiz-adv-x="376" />
<glyph unicode="&#x200a;" horiz-adv-x="104" />
<glyph unicode="&#x2010;" horiz-adv-x="696" d="M614 381h-532v297h532v-297z" />
<glyph unicode="&#x2011;" horiz-adv-x="696" d="M614 381h-532v297h532v-297z" />
<glyph unicode="&#x2012;" horiz-adv-x="696" d="M614 381h-532v297h532v-297z" />
<glyph unicode="&#x2013;" horiz-adv-x="1024" d="M1024 428h-1024v328h1024v-328z" />
<glyph unicode="&#x2014;" horiz-adv-x="2048" d="M2048 428h-2048v328h2048v-328z" />
<glyph unicode="&#x2018;" horiz-adv-x="614" d="M403 1565l150 -133q-113 -121 -129 -196t51 -149q39 -43 46 -102t-13.5 -112.5t-73.5 -90.5t-127 -37q-129 0 -192 121q-78 152 16 361q79 178 272 338z" />
<glyph unicode="&#x2019;" horiz-adv-x="614" d="M211 723l-150 133q113 121 129.5 195.5t-51.5 148.5q-39 43 -46 102.5t13.5 112.5t73.5 90t127 37q129 0 193 -121q78 -152 -17 -360q-79 -178 -272 -338z" />
<glyph unicode="&#x201a;" horiz-adv-x="614" d="M211 -410l-150 134q113 121 129.5 195.5t-51.5 148.5q-39 43 -46 102t13.5 112.5t73.5 90.5t127 37q129 0 193 -121q78 -152 -17 -361q-79 -178 -272 -338z" />
<glyph unicode="&#x201c;" horiz-adv-x="1146" d="M1085 1432q-113 -121 -129 -196t52 -149q39 -43 46 -102t-13.5 -112.5t-74 -90.5t-126.5 -37q-129 0 -193 121q-78 152 17 361q80 178 272 338zM553 1432q-113 -121 -129 -196t51 -149q39 -43 46 -102t-13.5 -112.5t-73.5 -90.5t-127 -37q-129 0 -192 121q-78 152 16 361 q80 178 272 338z" />
<glyph unicode="&#x201d;" horiz-adv-x="1146" d="M211 723l-150 133q113 121 129.5 195.5t-51.5 148.5q-39 43 -46 102.5t13.5 112.5t73.5 90t127 37q129 0 193 -121q78 -152 -17 -360q-79 -178 -272 -338zM743 723l-149 133q113 121 129 195.5t-51 148.5q-39 43 -46.5 102.5t13 112.5t74 90t127.5 37q129 0 192 -121 q78 -152 -16 -360q-80 -178 -273 -338z" />
<glyph unicode="&#x201e;" horiz-adv-x="1146" d="M211 -410l-150 134q113 121 129.5 195.5t-51.5 148.5q-39 43 -46 102t13.5 112.5t73.5 90.5t127 37q129 0 193 -121q78 -152 -17 -361q-79 -178 -272 -338zM743 -410l-149 134q113 121 129 195.5t-51 148.5q-39 43 -46.5 102t13 112.5t74 90.5t127.5 37q129 0 192 -121 q78 -152 -16 -361q-80 -178 -273 -338z" />
<glyph unicode="&#x2022;" horiz-adv-x="872" d="M436 997q158 0 271.5 -113.5t113.5 -271t-113.5 -271.5t-271.5 -114q-160 0 -272.5 114t-112.5 271.5t112.5 271t272.5 113.5z" />
<glyph unicode="&#x2026;" horiz-adv-x="1734" d="M307 420q92 0 158.5 -66.5t66.5 -159t-66.5 -159t-158.5 -66.5t-158.5 66.5t-66.5 159t66.5 159t158.5 66.5zM868.5 420q92.5 0 159 -66.5t66.5 -159t-66.5 -159t-159 -66.5t-159 66.5t-66.5 159t66.5 159t159 66.5zM1429.5 420q92.5 0 159 -66.5t66.5 -159t-66.5 -159 t-159 -66.5t-159 66.5t-66.5 159t66.5 159t159 66.5z" />
<glyph unicode="&#x202f;" horiz-adv-x="376" />
<glyph unicode="&#x2039;" horiz-adv-x="636" d="M559 827l-162 -313l168 -307l-303 -127l-217 434l223 438z" />
<glyph unicode="&#x203a;" horiz-adv-x="636" d="M592 518l-223 -438l-291 125l162 313l-168 307l303 127z" />
<glyph unicode="&#x205f;" horiz-adv-x="471" />
<glyph unicode="&#x20ac;" horiz-adv-x="1126" d="M1040 18q-147 -47 -344 -47q-453 0 -544 420h-132v195h107q-2 23 -2 67v37h-105v195h125q47 254 203 390t402 136q135 0 282 -29v-415h-237q-25 66 -25 118q-35 4 -63 5q-123 0 -148 -205h295v-195h-303q0 -74 2 -104h301v-195h-270q25 -59 75 -82.5t144 -23.5 q104 0 209 41z" />
<glyph unicode="&#x2122;" horiz-adv-x="1835" d="M1800 727h-364v158l43 12l-23 102l-10 48l-10 -48l-66 -272h-240l-67 274l-8 46l-8 -43l-25 -107q23 -4 43 -12v-158h-348v162q49 8 61 8l80 309q-49 6 -102 17v159h436l45 -192l14 -76l17 76l47 192h448v-159q-53 -10 -102 -17l80 -307q20 0 59 -6v-166zM717 1087h-166 q-12 82 -12 93h-39v-279q49 -2 100 -16v-158h-450v158q51 14 100 16v279h-39q0 -10 -12 -93h-164v295h682v-295z" />
<glyph unicode="&#xe000;" horiz-adv-x="1020" d="M0 1020h1020v-1020h-1020v1020z" />
<glyph unicode="&#xf001;" horiz-adv-x="1492" d="M1462 0h-653v246q76 20 123 24v461h-340v-461q47 -4 123 -24v-246h-674v246q100 18 178 24v461h-178v287h178v24q0 475 617 476q209 0 391 -41l-66 -308q-160 39 -303 39q-150 0 -208 -40t-58 -121v-29h713v-748q74 -6 157 -24v-246z" />
<glyph unicode="&#xfb01;" horiz-adv-x="1492" d="M1462 0h-653v246q76 20 123 24v461h-340v-461q47 -4 123 -24v-246h-674v246q100 18 178 24v461h-178v287h178v24q0 475 617 476q209 0 391 -41l-66 -308q-160 39 -303 39q-150 0 -208 -40t-58 -121v-29h713v-748q74 -6 157 -24v-246z" />
<glyph unicode="&#xf002;" horiz-adv-x="1492" d="M1462 0h-653v246q76 20 123 24v936q-49 8 -121 8q-219 0 -219 -167v-29h182v-287h-182v-461q47 -4 123 -24v-246h-674v246q100 18 178 24v461h-178v287h178v29q0 248 146.5 359.5t500.5 111.5q199 0 439 -39v-1209q72 -6 157 -24v-246z" />
<glyph unicode="&#xfb02;" horiz-adv-x="1492" d="M1462 0h-653v246q76 20 123 24v936q-49 8 -121 8q-219 0 -219 -167v-29h182v-287h-182v-461q47 -4 123 -24v-246h-674v246q100 18 178 24v461h-178v287h178v29q0 248 146.5 359.5t500.5 111.5q199 0 439 -39v-1209q72 -6 157 -24v-246z" />
<glyph unicode="&#xfb03;" horiz-adv-x="2205" d="M2175 0h-653v246q76 20 123 24v461h-340v-461q47 -4 122 -24v-246h-618v246q76 20 123 24v461h-340v-461q47 -4 123 -24v-246h-674v246q100 18 178 24v461h-178v287h178v24q0 242 131 352.5t412 110.5q221 0 420 -51q139 63 366 64q209 0 391 -41l-65 -308 q-160 39 -303 39q-150 0 -208 -40t-58 -121v-29h712v-748q74 -6 158 -24v-246zM944 1174q-68 23 -153 22q-106 0 -152.5 -30.5t-46.5 -110.5v-37h340v29q0 53 12 127z" />
<glyph unicode="&#xfb04;" horiz-adv-x="2205" d="M2175 0h-653v246q76 20 123 24v936q-39 8 -121 8q-219 0 -219 -167v-29h182v-287h-182v-461q47 -4 122 -24v-246h-618v246q76 20 123 24v461h-340v-461q47 -4 123 -24v-246h-674v246q100 18 178 24v461h-178v287h178v24q0 242 131 352.5t412 110.5q221 0 420 -51 q139 63 397 64q205 0 438 -39v-1209q74 -6 158 -24v-246zM944 1174q-68 23 -153 22q-106 0 -152.5 -30.5t-46.5 -110.5v-37h340v29q0 53 12 127z" />
</font>
</defs>
</svg>
